<?xml version="1.0" standalone="no"?>
<!DOCTYPE svg PUBLIC "-//W3C//DTD SVG 20010904//EN"
 "http://www.w3.org/TR/2001/REC-SVG-20010904/DTD/svg10.dtd">
<svg version="1.0" xmlns="http://www.w3.org/2000/svg"
 width="512.000000pt" height="512.000000pt" viewBox="0 0 512.000000 512.000000"
 preserveAspectRatio="xMidYMid meet">
<metadata>
Created by potrace 1.14, written by Peter Selinger 2001-2017
</metadata>
<g transform="translate(0.000000,512.000000) scale(0.100000,-0.100000)"
fill="#000000" stroke="none">
<path d="M0 2560 l0 -2560 2560 0 2560 0 0 2560 0 2560 -2560 0 -2560 0 0
-2560z m4072 1770 l48 0 -5 -57 c-5 -53 -8 -89 -20 -213 -2 -25 -7 -79 -10
-120 -3 -41 -8 -95 -10 -120 -6 -50 -11 -109 -20 -220 -3 -41 -8 -86 -10 -100
-2 -14 -7 -68 -11 -120 -3 -52 -8 -102 -9 -110 -2 -9 -6 -56 -10 -105 -4 -50
-8 -103 -10 -120 -1 -16 -5 -64 -9 -105 -4 -41 -9 -102 -13 -135 -3 -33 -7
-76 -8 -95 -1 -19 -5 -69 -9 -110 -4 -41 -9 -97 -11 -125 -3 -27 -7 -77 -10
-110 -10 -108 -14 -149 -20 -215 -3 -36 -8 -85 -10 -110 -2 -25 -7 -79 -10
-120 -6 -72 -10 -125 -20 -220 -2 -25 -7 -73 -10 -107 -5 -60 -10 -117 -20
-228 -2 -27 -7 -86 -10 -130 -4 -44 -10 -83 -13 -86 -6 -5 -172 -54 -252 -74
-8 -2 -96 -27 -195 -55 -99 -28 -188 -53 -197 -55 -9 -2 -72 -19 -140 -39 -68
-19 -206 -58 -308 -86 l-184 -51 -116 31 c-63 18 -135 38 -160 45 -25 8 -223
64 -440 125 -556 156 -544 153 -552 159 -4 3 -9 42 -13 86 -3 44 -8 100 -10
125 -4 37 -32 359 -50 570 -3 30 -8 82 -11 115 -3 33 -7 76 -9 95 -2 19 -6 73
-10 120 -3 47 -8 96 -10 110 -2 14 -7 60 -10 103 -3 43 -8 95 -10 115 -1 20
-6 73 -9 117 -4 44 -9 96 -11 115 -2 19 -7 71 -11 115 -3 44 -8 94 -9 110 -2
17 -6 68 -11 115 -4 47 -8 99 -10 115 -1 17 -5 59 -8 95 -3 36 -8 97 -11 135
-3 39 -8 86 -10 105 -2 19 -7 69 -10 110 -7 86 -9 109 -30 338 -3 28 -7 76
-10 105 -2 28 -7 78 -10 109 l-5 57 77 3 c58 2 2653 1 2995 -2z"/>
<path d="M1652 3682 l-72 -3 5 -42 c2 -23 7 -73 10 -112 3 -38 7 -86 10 -105
2 -19 7 -71 10 -115 9 -120 24 -293 30 -345 2 -19 7 -71 10 -115 3 -44 7 -98
10 -120 5 -42 17 -191 18 -212 0 -16 -75 -14 699 -15 l658 0 -5 -61 c-3 -34
-7 -78 -10 -97 -4 -37 -11 -113 -20 -220 -3 -36 -8 -74 -10 -85 -2 -11 -4 -25
-4 -32 -1 -7 -18 -17 -38 -22 -21 -5 -119 -31 -217 -57 l-180 -48 -85 23 c-48
13 -93 24 -101 27 -44 10 -245 65 -246 67 -2 2 -11 83 -20 187 -4 41 -8 82
-10 90 -1 8 -3 20 -3 25 -1 11 -367 12 -378 1 -7 -6 -5 -100 3 -139 2 -12 6
-59 9 -107 3 -47 7 -101 9 -120 2 -19 7 -80 11 -135 4 -55 10 -103 14 -106 3
-3 76 -25 161 -49 165 -45 395 -108 420 -115 8 -2 61 -16 116 -31 l102 -27
158 43 c88 24 179 49 204 56 80 22 274 75 325 90 28 8 65 17 83 20 20 4 32 13
33 23 1 9 2 27 3 41 2 14 6 63 10 110 4 47 9 99 11 115 2 17 7 64 10 105 4 41
8 89 9 105 2 17 6 64 10 105 4 41 9 95 11 120 3 25 8 74 11 110 3 36 7 81 9
100 1 19 6 69 9 110 4 41 9 96 12 123 l5 47 -48 0 c-26 1 -347 1 -713 1 l-666
0 -2 33 c-1 19 -4 54 -7 78 -7 64 -18 218 -19 257 l-1 34 744 1 c687 1 744 2
747 18 1 9 5 52 8 95 7 91 15 171 21 231 l5 42 -98 0 c-53 0 -461 1 -907 3
-445 1 -843 1 -883 -1z"/>
</g>
</svg>
